<mxfile host="app.diagrams.net" agent="Mozilla/5.0 (X11; Linux x86_64) AppleWebKit/537.36 (KHTML, like Gecko) Chrome/131.0.0.0 Safari/537.36" version="27.2.0">
  <diagram name="Страница — 1" id="c-Dar-Ku9u0siUJHGhi_">
    <mxGraphModel dx="1356" dy="798" grid="1" gridSize="10" guides="1" tooltips="1" connect="1" arrows="1" fold="1" page="1" pageScale="1" pageWidth="827" pageHeight="1169" math="0" shadow="0">
      <root>
        <mxCell id="0" />
        <mxCell id="1" parent="0" />
        <mxCell id="FceF_xY_NSdPocLUSAft-3" value="" style="edgeStyle=orthogonalEdgeStyle;rounded=0;orthogonalLoop=1;jettySize=auto;html=1;" edge="1" parent="1" source="FceF_xY_NSdPocLUSAft-1" target="FceF_xY_NSdPocLUSAft-2">
          <mxGeometry relative="1" as="geometry" />
        </mxCell>
        <mxCell id="FceF_xY_NSdPocLUSAft-1" value="&lt;h1&gt;INITIAL&lt;/h1&gt;" style="rounded=0;whiteSpace=wrap;html=1;" vertex="1" parent="1">
          <mxGeometry x="380" y="350" width="120" height="60" as="geometry" />
        </mxCell>
        <mxCell id="FceF_xY_NSdPocLUSAft-5" value="" style="edgeStyle=orthogonalEdgeStyle;rounded=0;orthogonalLoop=1;jettySize=auto;html=1;" edge="1" parent="1" source="FceF_xY_NSdPocLUSAft-2" target="FceF_xY_NSdPocLUSAft-4">
          <mxGeometry relative="1" as="geometry" />
        </mxCell>
        <mxCell id="FceF_xY_NSdPocLUSAft-2" value="&lt;h1&gt;START&lt;/h1&gt;" style="rounded=0;whiteSpace=wrap;html=1;" vertex="1" parent="1">
          <mxGeometry x="380" y="490" width="120" height="60" as="geometry" />
        </mxCell>
        <mxCell id="FceF_xY_NSdPocLUSAft-9" value="" style="edgeStyle=orthogonalEdgeStyle;rounded=0;orthogonalLoop=1;jettySize=auto;html=1;" edge="1" parent="1" source="FceF_xY_NSdPocLUSAft-4" target="FceF_xY_NSdPocLUSAft-8">
          <mxGeometry relative="1" as="geometry" />
        </mxCell>
        <mxCell id="FceF_xY_NSdPocLUSAft-4" value="&lt;h1&gt;SHIFTING/MOVING&lt;/h1&gt;" style="rounded=0;whiteSpace=wrap;html=1;" vertex="1" parent="1">
          <mxGeometry x="280" y="630" width="320" height="60" as="geometry" />
        </mxCell>
        <mxCell id="FceF_xY_NSdPocLUSAft-11" value="" style="edgeStyle=orthogonalEdgeStyle;rounded=0;orthogonalLoop=1;jettySize=auto;html=1;" edge="1" parent="1" source="FceF_xY_NSdPocLUSAft-8" target="FceF_xY_NSdPocLUSAft-10">
          <mxGeometry relative="1" as="geometry" />
        </mxCell>
        <mxCell id="FceF_xY_NSdPocLUSAft-18" value="" style="edgeStyle=orthogonalEdgeStyle;rounded=0;orthogonalLoop=1;jettySize=auto;html=1;" edge="1" parent="1" source="FceF_xY_NSdPocLUSAft-8" target="FceF_xY_NSdPocLUSAft-17">
          <mxGeometry relative="1" as="geometry" />
        </mxCell>
        <mxCell id="FceF_xY_NSdPocLUSAft-8" value="&lt;h1&gt;GAMEOVER/WINNER&lt;/h1&gt;" style="rounded=0;whiteSpace=wrap;html=1;" vertex="1" parent="1">
          <mxGeometry x="280" y="770" width="320" height="60" as="geometry" />
        </mxCell>
        <mxCell id="FceF_xY_NSdPocLUSAft-10" value="&lt;h1&gt;RESTART&lt;/h1&gt;" style="whiteSpace=wrap;html=1;rounded=0;" vertex="1" parent="1">
          <mxGeometry x="780" y="770" width="120" height="60" as="geometry" />
        </mxCell>
        <mxCell id="FceF_xY_NSdPocLUSAft-15" value="" style="endArrow=classic;html=1;rounded=0;entryX=1;entryY=0.5;entryDx=0;entryDy=0;" edge="1" parent="1" target="FceF_xY_NSdPocLUSAft-2">
          <mxGeometry width="50" height="50" relative="1" as="geometry">
            <mxPoint x="840" y="520" as="sourcePoint" />
            <mxPoint x="530" y="520" as="targetPoint" />
            <Array as="points" />
          </mxGeometry>
        </mxCell>
        <mxCell id="FceF_xY_NSdPocLUSAft-16" value="" style="endArrow=none;html=1;rounded=0;" edge="1" parent="1" source="FceF_xY_NSdPocLUSAft-10">
          <mxGeometry width="50" height="50" relative="1" as="geometry">
            <mxPoint x="420" y="750" as="sourcePoint" />
            <mxPoint x="840" y="520" as="targetPoint" />
            <Array as="points">
              <mxPoint x="840" y="640" />
            </Array>
          </mxGeometry>
        </mxCell>
        <mxCell id="FceF_xY_NSdPocLUSAft-17" value="&lt;h1&gt;EXIT&lt;/h1&gt;" style="whiteSpace=wrap;html=1;rounded=0;" vertex="1" parent="1">
          <mxGeometry x="380" y="910" width="120" height="60" as="geometry" />
        </mxCell>
      </root>
    </mxGraphModel>
  </diagram>
</mxfile>
